<?xml version="1.0" encoding="utf-8"?>
<svg xmlns="http://www.w3.org/2000/svg"
	xmlns:xlink="http://www.w3.org/1999/xlink"
	width="22px" height="17px" viewBox="0 0 22 17">
<filter filterUnits="objectBoundingBox" x="0.00" y="0.00" width="100.00" height="100.00" id="filter0">
<feFlood flood-color="rgb(66,66,66)" result="coFloodOut1"/>
<feComposite in="coFloodOut1" in2="SourceAlpha" operator="in" result="coOverlay1"/>
<feBlend in="coOverlay1" in2="SourceGraphic" mode="normal" result="colorOverlay1"/>
</filter>
<path fillRule="evenodd" d="M 21.9 3.73C 21.9 3.73 21.91 3.73 21.91 3.73 21.91 3.73 18.81 10.41 18.81 10.41 18.81 10.41 18.81 10.41 18.81 10.41 18.66 10.73 18.33 10.97 17.94 10.99 17.94 10.99 17.94 10.99 17.94 10.99 17.94 10.99 9.03 11.57 9.03 11.57 9.03 11.57 9.55 13 9.55 13 9.55 13 19.25 13 19.25 13 20.39 13 21.31 13.89 21.31 15 21.31 16.1 20.39 17 19.25 17 18.11 17 17.18 16.1 17.18 15 17.18 15 7.56 15 7.56 15 7.56 16.1 6.64 17 5.5 17 4.36 17 3.44 16.1 3.44 15 3.44 13.89 4.36 13 5.5 13 5.5 13 7.36 13 7.36 13 7.36 13 3.39 1.99 3.39 1.99 3.39 1.99 1.03 1.99 1.03 1.99 0.46 1.99-0 1.54-0 0.99-0 0.44 0.46-0.01 1.03-0.01 1.03-0.01 4.12-0.01 4.12-0.01 4.57-0.01 4.95 0.27 5.09 0.66 5.09 0.66 5.1 0.66 5.1 0.66 5.1 0.66 5.7 2.32 5.7 2.32 5.7 2.32 20.96 2.32 20.96 2.32 21.53 2.32 22 2.77 22 3.32 22 3.47 21.96 3.61 21.9 3.73ZM 6.42 4.32C 6.42 4.32 8.33 9.61 8.33 9.61 8.33 9.61 17.19 9.04 17.19 9.04 17.19 9.04 19.37 4.32 19.37 4.32 19.37 4.32 6.42 4.32 6.42 4.32Z" fill="rgb(255,255,255)" filter="url(#filter0)"/></svg>