<?xml version="1.0" encoding="utf-8"?>
<svg xmlns="http://www.w3.org/2000/svg"
	xmlns:xlink="http://www.w3.org/1999/xlink"
	width="16px" height="16px" viewBox="0 0 16 16">
<path fillRule="evenodd" d="M 14 16C 14 16 2 16 2 16 0.9 16-0 15.1-0 14-0 14-0 2-0 2-0 0.89 0.9-0 2-0 2-0 4-0 4-0 4-0 4 1 4 1 4 1.55 4.45 2 5 2 5.55 2 6 1.55 6 1 6 1 6-0 6-0 6-0 10-0 10-0 10-0 10 1 10 1 10 1.55 10.45 2 11 2 11.55 2 12 1.55 12 1 12 1 12-0 12-0 12-0 14-0 14-0 15.1-0 16 0.89 16 2 16 2 16 14 16 14 16 15.1 15.1 16 14 16ZM 14 6C 14 5.45 13.55 5 13 5 13 5 3 5 3 5 2.45 5 2 5.45 2 6 2 6 2 13 2 13 2 13.55 2.45 14 3 14 3 14 13 14 13 14 13.55 14 14 13.55 14 13 14 13 14 6 14 6ZM 10 12C 10 12 12 12 12 12 12 12 12 10 12 10 12 10 10 10 10 10 10 10 10 12 10 12ZM 10 9C 10 9 12 9 12 9 12 9 12 7 12 7 12 7 10 7 10 7 10 7 10 9 10 9ZM 7 12C 7 12 9 12 9 12 9 12 9 10 9 10 9 10 7 10 7 10 7 10 7 12 7 12ZM 7 9C 7 9 9 9 9 9 9 9 9 7 9 7 9 7 7 7 7 7 7 7 7 9 7 9ZM 4 12C 4 12 6 12 6 12 6 12 6 10 6 10 6 10 4 10 4 10 4 10 4 12 4 12ZM 4 9C 4 9 6 9 6 9 6 9 6 7 6 7 6 7 4 7 4 7 4 7 4 9 4 9Z" fill="rgb(205,207,217)"/></svg>